<svg width="212" height="212" viewBox="0 0 212 212" fill="none" xmlns="http://www.w3.org/2000/svg">
    <rect width="212" height="212" />
    <g clip-path="url(#clip0_0_1)">
        <path d="M106.251 0.5C164.653 0.5 212 47.846 212 106.25C212 164.654 164.653 212 106.25 212C47.846 212 0.5 164.654 0.5 106.25C0.5 47.846 47.846 0.5 106.251 0.5Z" fill="#3B82F6"/>
        <path d="M173.561 171.615C172.96 170.7 172.274 169.708 171.496 168.66C170.719 167.611 169.851 166.505 168.888 165.361C167.924 164.217 166.864 163.035 165.704 161.834C163.963 160.032 161.994 158.188 159.78 156.364C156.828 153.933 153.441 151.54 149.576 149.338C147.699 148.268 145.703 147.246 143.596 146.283C143.534 146.255 143.478 146.224 143.416 146.196C133.624 141.756 121.31 138.667 106 138.667C90.69 138.667 78.376 141.756 68.584 146.196C68.246 146.349 67.931 146.514 67.599 146.67C66.168 147.344 64.793 148.046 63.471 148.771C62.755 149.164 62.054 149.563 61.37 149.968C57.949 151.995 54.895 154.159 52.22 156.363C50.007 158.186 48.038 160.031 46.296 161.833C45.135 163.034 44.076 164.217 43.112 165.36C42.148 166.504 41.28 167.61 40.503 168.659C39.725 169.708 39.039 170.699 38.438 171.614C37.881 172.462 37.405 173.236 36.991 173.938C36.958 173.994 36.918 174.057 36.887 174.112C36.452 174.856 36.097 175.504 35.817 176.038C35.258 177.106 34.999 177.716 34.999 177.716V178.114C53.284 196.041 78.321 207.099 105.944 207.099C133.622 207.099 158.705 195.996 176.999 178.004V177.715C176.999 177.715 176.38 176.265 175.007 173.937C174.594 173.238 174.117 172.463 173.561 171.615Z" fill="white"/>
        <path d="M106.002 125.5C108.647 125.5 111.214 125.247 113.682 124.763C114.916 124.521 116.125 124.221 117.306 123.867C119.078 123.335 120.788 122.679 122.426 121.909C124.61 120.882 126.668 119.651 128.576 118.239C131.439 116.12 133.966 113.593 136.085 110.73C136.791 109.776 137.452 108.785 138.065 107.759C138.984 106.22 139.794 104.604 140.487 102.919C140.949 101.796 141.359 100.642 141.713 99.461C141.89 98.87 142.054 98.273 142.203 97.669C142.502 96.461 142.745 95.226 142.928 93.968C143.203 92.081 143.345 90.141 143.345 88.157C143.345 86.173 143.203 84.232 142.928 82.346C142.744 81.088 142.502 79.853 142.203 78.645C142.053 78.041 141.89 77.443 141.713 76.852C141.359 75.671 140.949 74.517 140.487 73.394C139.794 71.709 138.983 70.093 138.065 68.554C137.452 67.528 136.791 66.537 136.085 65.583C133.966 62.72 131.439 60.193 128.576 58.074C126.667 56.662 124.61 55.431 122.426 54.404C120.788 53.634 119.078 52.978 117.306 52.446C116.125 52.091 114.916 51.791 113.682 51.55C111.214 51.066 108.647 50.813 106.002 50.813C84.84 50.813 68.657 66.996 68.657 88.158C68.657 109.317 84.84 125.5 106.002 125.5Z" fill="white"/>
    </g>
    <defs>
        <clipPath id="clip0_0_1">
            <rect width="212" height="212" fill="white"/>
        </clipPath>
    </defs>
</svg>
